<svg xmlns="http://www.w3.org/2000/svg" xmlns:xlink="http://www.w3.org/1999/xlink" version="1.1" x="0px" y="0px" viewBox="0 0 2000 2000" style="enable-background:new 0 0 2000 2000;" xml:space="preserve">
    <defs>
      <clipPath id="clip">
        <rect x="0" y="0" width="2000" height="2000"/>
      </clipPath>
      <linearGradient id="grad1" x1="0%" y1="0%" x2="100%" y2="0%">
        <stop offset="0%" style="stop-color:#ffe933;stop-opacity:1" />
        <stop offset="45%" style="stop-color:#ffe933;stop-opacity:1" />
        <stop offset="49%" style="stop-color:#FFFACD;stop-opacity:1" />
        <stop offset="50%" style="stop-color:#FFFFFF;stop-opacity:1" />
        <stop offset="51%" style="stop-color:#FFFACD;stop-opacity:1" />
        <stop offset="75%" style="stop-color:#ffe933;stop-opacity:1" />
        <stop offset="100%" style="stop-color:#ffe933;stop-opacity:1" />
      </linearGradient>
      <linearGradient id="grad2" x1="0%" y1="0%" x2="100%" y2="100%">
        <stop offset="0%" style="stop-color:#FFF700;stop-opacity:1" />
        <stop offset="10%" style="stop-color:#ffe933;stop-opacity:1" />
      </linearGradient>
    </defs>
    <g clip-path="url(#clip)" transform="scale(1.2) translate(-100 -300)">
      <g>
        <path d="M1034.59,535.05c11.04,0,20-8.96,20-20V395.89c0-11.04-8.96-20-20-20s-20,8.96-20,20v119.16C1014.59,526.1,1023.54,535.05,1034.59,535.05z"/>
        <path d="M800.65,565.57c3.19,7.7,10.64,12.35,18.49,12.35c2.55,0,5.14-0.49,7.65-1.53c10.21-4.23,15.05-15.93,10.82-26.13l-45.6-110.09c-4.23-10.21-15.92-15.04-26.13-10.82c-10.21,4.23-15.05,15.93-10.82,26.13L800.65,565.57z"/>
        <path d="M622.33,694.1c3.91,3.9,9.02,5.86,14.14,5.86s10.24-1.95,14.14-5.86c7.81-7.81,7.81-20.47,0-28.29l-84.26-84.26c-7.81-7.81-20.47-7.81-28.29,0c-7.81,7.81-7.81,20.47,0,28.29L622.33,694.1z"/>
        <path d="M1531.1,581.56c-7.81-7.81-20.47-7.81-28.29,0l-84.26,84.26c-7.81,7.81-7.81,20.47,0,28.29c3.91,3.9,9.02,5.86,14.14,5.86s10.24-1.95,14.14-5.86l84.26-84.26C1538.91,602.03,1538.91,589.37,1531.1,581.56z"/>
        <path d="M1242.39,576.39c2.5,1.04,5.1,1.53,7.65,1.53c7.85,0,15.29-4.65,18.49-12.35l45.6-110.09c4.23-10.21-0.62-21.9-10.82-26.13c-10.21-4.22-21.9,0.62-26.13,10.82l-45.6,110.09C1227.34,560.46,1232.19,572.16,1242.39,576.39z"/>
      </g>
      <g>
        <path stroke="#000" stroke-width="30" fill="url(#grad2)" d="M781.82,1622.86l-311.76-149.75c-5.13-2.46-7.92-8.1-6.77-13.67l34.94-169.25c1.61-7.78,10.01-12.06,17.24-8.78l238.54,107.93c3.71,1.68,6.36,5.07,7.08,9.08l38.28,211.07C801.18,1619.44,790.94,1627.24,781.82,1622.86z"/>
        <path stroke="#000" stroke-width="30" fill="url(#grad1)" d="M1453.23,935.66l-591.97,669.09c-6.85,7.75-19.62,4.18-21.47-6l-37.72-208.02c-0.72-3.96,0.53-8.02,3.35-10.89l523.98-533.96c4.22-4.3,10.92-4.94,15.87-1.52l105.72,72.89C1457.1,921.47,1458.15,930.09,1453.23,935.66z"/>
        <path stroke="#000" stroke-width="30" fill="url(#grad1)" d="M1285.91,830.69l-506.03,515.68c-3.64,3.71-9.21,4.75-13.95,2.61l-227.8-103.05c-7.84-3.55-9.77-13.82-3.74-19.96l506.03-515.68c3.64-3.71,9.21-4.75,13.95-2.61l227.8,103.05C1290.02,814.27,1291.94,824.54,1285.91,830.69z"/>
      </g>
    </g>
  </svg>