<svg xmlns="http://www.w3.org/2000/svg" version="1.1" viewBox="-5.0 -10.0 110.0 135.0">
    <path fill="var(--ifm-color-primary)" d="m90.359 51.328c-0.67969-0.52734-1.625-0.49219-2.2695-0.45312l-12.777 0.83203c-5.4453-8.082-12.023-11.746-20.605-15.41 3.707-7.3672-2.7227-23.984-6.918-21.039-0.26562 0.15234-0.41406 0.37891-0.53125 0.64063-4.5352-0.86719-9 1.6992-10.812 6.2344-1.5898 3.8164-2.7617 2.2305-2.7227 3.2852 0.039063 0.83203 1.3594 0.039062 3.2148 1.6602-0.11328 2.7578 1.4375 5.5898 3.8945 7.0273l2.8359 3.25c-0.039063 0.039062-0.039063 0.074219-0.039063 0.15234-6.4258 2.9844-12.93 6.6484-19.32 10.047 1.0977-10.578 5.1055-11.559 1.7031-11.145 0.75781-1.0586 3.1367-1.4336 3.1016-3.4766 0-0.41406-0.1875-0.83203-0.53125-1.0195 2.1914-0.71875-0.26562-5.25-3.25-3.4375-1.2852-1.9258-3.7812 3.0234-4.0078 7.1016-0.94531-0.30078-0.98438 0.33984-1.3984 1.0586-0.37891 0.71875-0.90625 1.4336-1.3242 2.1523-4.6133 7.9688-8.8477 16.656-9.6406 25.949-1.5117 18.02 13.008 23.645 24.574 12.086 0.1875 0.79297 1.4375 5.8164 1.9648 6.082 3.707 1.8125 8.3555 2.0391 12.25 0.64062 0.15234-0.039063 0.22656-0.15234 0.30078-0.26562 2.875 2.7188 2.3047 1.625 5.1406 1.3984 1.7383-0.15234 3.3281-0.45313 5.0664-0.71875l26.996-4.418c2.6484-0.33984 2.7227-2.2656 2.9883-4.3438l2.8359-20.852c0.15234-1.0938 0.15234-2.3047-0.71875-3.0234zm-16.672 16.469c-3.2148 2.2305-4.7266-4.1562-1.5508-4.1562 0.26562 0 0.60547 0.074219 0.87109 0.30078-1.5508 0.94531-0.1875 3.0977 1.2461 2.2656 0.41406 0.60547-0.11328 1.2852-0.56641 1.5859zm-26.848-38.715c0.11328-0.1875 0.30078-0.30078 0.49219-0.30078 0.49219 2.2656 3.7422 3.1367 5.293 1.2852 2.3047-2.7969-0.94531-6.1562-3.8203-4.5703-0.90625 0.45312-1.4375 1.3984-1.5508 2.3438-0.41406 0.039062-0.79297 0.1875-1.0586 0.49219-2.457-2-6.0117 0.41406-4.9922 3.25 0.75781 2.0781 3.7812 2.7188 5.2188 0.98047 0.75781-0.90625 1.0977-2.3438 0.41406-3.4766zm-1.1328 2.832c-0.98438 1.1719-3.0625 0.71875-3.5547-0.67969-0.79297-2.1172 2.1562-3.6641 3.6289-2 0.71875 0.83203 0.49219 2-0.074219 2.6836zm3.5547-5.5898c2.0039-1.0586 4.2734 1.1328 2.6094 3.0977-1.8516 2.2656-5.5195-1.4727-2.6094-3.0977zm1.4727 55.941-9.1133-6.8008 9.4141-0.86719zm1.0977-25.496-0.71875 16.883c-1.1328 0.074218-2.2695 0.15234-3.4023 0.30078-1.5117-8.6133 0.1875-17.676 1.7773-25.762 1.8906 0.83203 4.1602 1.5469 5.8594 2.5703 1.3242 0.83203 1.4375-0.37891 1.625-1.0938 0.87109-3.8516 1.2461-6.9492 0.87109-10.953 1.2461 0.56641 2.457 1.1719 3.6289 1.8125 0.53125 4.6836-0.15234 7.8945-1.625 12.199-4.7656 0.30078-7.8281-0.45312-8.0156 4.043zm2.1172-19.301c0.37891 2.5312-3.0625 7.3281-4.6484 9.1406h-0.039062c-1.9297-2.4922-3.4414-5.3242-4.4609-8.3086 3.2148 2.1172 6.7695 2.2656 9.1484-0.83203zm-29.605-8.125c0-0.039062 0.074219-0.11328 0.11328-0.15234-0.30078 1.4336-0.90625 2.3047-0.26562 2.5312 1.2852 0.45312 0.26562-2.9844 2.7227-2.6445 1.5898 0.22656 1.8164 2.418 1.1328 1.8125-2.3828-2.1523-4.0469 2.457-1.3594 2.6836 0.75781 0.039062 1.0195-0.33984 1.3984-0.71875 0.41406 1.3203-2.5703 1.8867-3.2148 3.5898-0.90625 0-1.7773-0.1875-2.6484-0.45312 0.11328-2.4922 0.83203-4.8359 2.1172-6.6484zm3.4766 2.5703c-0.41406 0.1875-0.90625 1.0938-1.3984 0.49219-0.41406-0.49219 0.15234-1.5469 0.94531-0.83203 0.11328 0.11328 0.22656 0.22656 0.45312 0.33984zm-6.7305 4.6445c1.5117 0.71875 3.2148 0.98047 4.8789 0.83203-0.26562 0.49219-0.49219 1.0586-0.71875 1.6602-1.1328 0-3.6289-0.94531-4.7656-1.5469 0.1875-0.30078 0.37891-0.64062 0.60547-0.94531zm20.156 46.875-2.6484-9.707c-2.3047-10.918-0.83203-22.137 0.60547-32.977 0.67969-0.33984 1.3594-0.67969 2.043-1.0195-0.33984 4.043 0.039062 8.1953 1.2109 12.051 0.41406 1.3984 1.8164-1.4727 6.0508-3.5508-1.5898 8.082-3.25 17.109-1.7383 25.797l-6.8047 0.71875c-0.074219 0.074218-0.56641 1.207-0.1875 1.5469 2.418 2.1914 4.9531 4.3438 7.5234 6.3828-1.9297 0.64062-4.0078 0.90625-6.0508 0.75391zm0.41406-6.7227 8.8477 6.5742c0.039063 0.30078 0.039063 0.52734 0.039063 0.67969-3.0625-2.3047-6.0508-4.7227-8.8867-7.2539zm48.469-22.477-2.875 21.078c-0.26562 2.1523-0.41406 3.0586-2.1172 3.2852l-33.461 5.2891 1.0977-27.047c0.11328-2.2305 0.60547-2.6836 2.7617-2.832l32.629-2.1523c1.6641-0.11328 2.2305 0.22656 1.9648 2.3789zm-48.543-20.734c-0.90625-1.1719-1.3594-3.8906-1.3594-5.3242 3.6289-1.1719 7.5977-2.7188 9-6.4961 1.8516 1.9648 3.668 4.0039 5.3672 6.082 0.26562 2.2656 0.41406 4.3047-0.039062 6.2695-1.0977 4.3047-4.9922 6.3477-9.0742 3.5898-1.5117-1.0586-2.7227-2.5312-3.8945-4.1172z" fill-rule="evenodd"/>
</svg>