<svg xmlns="http://www.w3.org/2000/svg" version="1.1" viewBox="-5.0 -10.0 110.0 135.0">
 <path fill="var(--ifm-color-primary)" d="m69.988 35.25c0.94531-1.4336 3.7812-3.4766-0.91016-6.3828-4.5742-2.8711-0.60156-5.1367-2.3438-8.5352-1.3594-2.5703-3.3633-1.2109-5.6328-5.5547-3.2109-6.2305-7.5977-3.3984-8.6211-3.3984-0.30078 0.039063-8.1289-3.8516-11.57 1.4727-2.5312 3.8906 1.9648 4.3438-1.9297 6.9141-5.4453 3.625 0.71875 5.8164 0.1875 8.5-0.1875 0.94531-5.4062 5.1367 0.60547 7.0625-6.9961 4.3438-12.211 12.164-13.949 20.207-2.9102-5.5156-3.8555-12.012-2.418-17.98l-0.45312-0.60547c3.4023-7.2539-6.3516-12.578-6.5039-7.7422-6.0859-2.6055-9.4531 3.9648-2.7227 5.6641 0.60547 0.15234 2.8359 0.79297 2.7617 1.2461-2.875 8.0078-4.2734 16.883-4.1602 26.441 0.11328 8.2734 4.2734 20.473 15.613 17.789-0.22656 2.1172-0.37891 4.1914-0.45312 6.3086-0.039062 1.5469 1.2109 2.7578 2.7227 2.7578 6.3125 0 29.906 0.56641 34.441 0.11328 0.33984 0 4.1953 1.0586 10.207-0.15234 27.977-5.6289 11.57-47.633-4.8789-54.129zm-0.90625 23.758c1.7383 4.1914 3.1016 10.805-1.5508 13.863zm-21.852 10.273c-1.625-1.4727 1.6641-5.6289 4.7656 0.86719 0.37891 0.75391 0.75781 1.5469 1.2852 2.2656-1.8516 3.3242-2.6836 4.7578-2.9883 5.4375-2.8359-0.22656-6.0859-0.52734-7.5977-3.2852-1.8164-3.4766 1.7383-6.3086 3.8945-4.5703 0.49219 0.41406 1.1328-0.30078 0.64453-0.71875zm-1.5547-37.129c-0.41406-1.0586-0.56641-2.2305-0.71875-3.3984 1.3594-0.45312 1.2852-2.5703 1.1719-3.6641l0.33984-0.074219c0.1875 4.1172 4.1602 4.9492 5.7852 1.3984 2.6484-5.7422-5.3672-7.5156-5.7852-2.418l-0.48828 0.14844c-0.33984-1.0586-1.0977-1.1328-1.2109-1.2852-1.0977-1.3594 0.79297-2.5703 0.67969-4.1562-0.11328-1.8516 1.9648-1.7383 3.5898-1.0586 0.67969 0.26562 0.71875-1.0195 1.8164-0.71875 1.9648 0.52734-0.83203 4.5703 3.2891 3.625 1.7031-0.37891 3.0625 0.67969 1.8164 2.832-2.0781 3.5898 1.2461 3.0586 0.30078 4.6094-0.56641 0.86719-0.64453 3.8516-3.3633 6.082-2.457 2.0039-5.8984 1.6992-7.2227-1.9258zm-1.2109-8.3086c1.625 0.52734 0.33984 6.2344-0.56641 3.1367-0.33984-1.1328-0.30078-2.418 0.56641-3.1367zm4.2734-1.7383c6.3906-0.64062 1.2852 8.6133-0.90625 4.4961-0.60547-1.1719-0.71875-4.3047 0.90625-4.4961zm-1.1328 13.75c3.5547 1.625 7.1836-1.207 8.8086-5.25 3.1367 4.3828-4.8398 5.4766-3.0234 12.691-1.2109 1.1719-4.7656 4.9492-6.2383 6.4961-0.90625-4.6445-0.75781-9.4414 0.45312-13.938zm-33.648-1.9258c-5.1406-1.3594-2.6484-4.9844 0.67969-4.2305 1.9648 0.41406 2.9883 1.6602 3.3633 0.83203 0.30078-0.67969-0.98438-0.67969-0.49219-1.5469 1.2109-2.2656 7.1094 2.6055 4.5 7.7422-1.4727-0.37891-3.0234-0.67969-4.5352-0.86719-0.75781-1.207-2.2305-1.5859-3.5156-1.9258zm32.211 54.656c-6.2383-0.074219-12.703-0.15234-15.992-0.11328-0.98438-0.039062-1.7383-0.79297-1.7031-1.7383 0.45312-14.164 4.3086-28.215 11.117-40.566 0.33984-0.60547-0.53125-1.0586-0.87109-0.49219-5.7109 10.387-9.3398 21.871-10.699 33.656-11.457 3.0586-14.633-10.273-14.707-16.734-0.11328-9.3281 1.2109-18.02 3.9688-25.797 1.7031 0.22656 3.4023 0.56641 5.0664 1.0195-1.9297 8.5352 0.87109 18.094 7.1094 24.477 0.45312 0.45312 1.1719-0.22656 0.71875-0.67969-1.4375-1.4727-2.6836-3.0977-3.707-4.8711 0.37891-0.41406 1.9297-13.672 14.934-21.227 1.3984-0.71875 2.875-1.1719 4.5-0.98047 0.22656 0.30078 0.53125 0.52734 0.83203 0.79297-1.625 3.2852-1.4375 17.98 0.49219 15.863 1.8516-2 5.1797-5.5156 6.5039-6.8359l0.98438 2.7578c0.26562 1.1719-0.41406 2.832-1.0586 3.5898 2.1172 0.22656 14.406 2.1914 15.16-0.11328 0.49219-1.4336-2.2305-2.5703 0.94531-3.2852 4.0078-0.94531 2.9492-4.4961 1.2109-7.2148-0.64453-1.0195-1.5898-2.418-1.3594-3.8906 10.398 4.0781 20.227 22.285 19.281 35.961-0.41406 6.1953-3.25 14.051-14.254 16.281-9.4883 1.8867-19.848-1.3203-23.062-10.086 0.87109-1.625 1.7773-3.3242 2.6836-5.1367 2.9492 1.2461 6.8047 2.7969 10.512 1.8867 12.176-2.9102 4.5352-17.941 4.5-18.055-0.15234-0.83203 0.60547-3.2109 0.1875-3.9297-0.41406 0.60547-18.527-1.8516-19.281-1.6992l-2.1914 14.316c-1.4727 0.1875-2.2695 1.3594-2.1172 2.8711-4.9141-1.1328-7.2578 7.2148 0 9.5938l4.8789 0.67969c1.7383 4.5703 5.7109 8.1211 10.812 9.8594-3.4414 0-9.6797-0.074219-15.387-0.15234z" fill-rule="evenodd"/>
</svg>