<svg xmlns="http://www.w3.org/2000/svg" version="1.1" viewBox="-5.0 -10.0 110.0 135.0">
 <path fill="var(--ifm-color-primary)" d="m71.324 50.16c-0.94531-5.2891-4.9141-8.4609-11.078-12.957 0.64453-3.1719-1.6641-2.832-0.22656-4.7578 0.71875-0.94531 2.043-2.3789 1.7031-3.25-1.0977-2.6055-5.4805 3.3242-5.8984 3.8516-1.9648-1.5469-3.7812 1.9648 0.53125 5.8555 0.22656 0.15234 0.75781 1.7734 0.90625 2.1172 1.5508 4.0039 1.5117 5.3633 0.53125 9.5938-5.293-5.9688-11.91-9.5547-19.734-10.727 4.4609-2.5703 0.22656-7.0625 0.79297-9.8945 0.039063-0.11328 0-0.22656-0.039062-0.30078 2.043-1.3203 4.2734-3.0977 5.4805-5.6641 0.22656-0.56641-0.53125-0.98047-0.87109-0.49219-0.98438 1.5469-3.1758 1.7734-4.9141 1.5117-0.64453 3.0977-5.5195-2.6055-10.625 1.0586-1.3984 1.0195-2.043 1.9258-2.2305 2.8711-1.0977 6.082 2.3438 4.7578 3.8555 8.875 0.22656 0.64063-0.15234 1.3984-0.83203 1.5859 1.2109 3.2852 3.8945 1.6992 6.4648 1.207 2.0781-0.37891 8.0547 1.3594 9.9453 2.1172-4.9922 5.3242-6.4648 12.539-4.6875 19.641l0.074218 0.15234c5.4805 6.9141 12.855 10.578 19.926 7.6289-0.22656-0.60547 0.074218-1.2461 0.64453-1.5469 0.75781-0.41406 10.02-5.5156 9.1875-17.148-0.074219-0.67969 0.41406-1.2461 1.0977-1.3203zm-46.012-9.2539c-7.4102 3.5117-17.582 9.4062-14.781 18.395 1.8516 5.9297 6.4648 4.8359 7.2578 5.9297 0.75781-7.3281 2.9492-14.09 7.5234-20.66 0.15234-0.41406 1.0977-1.2852 0-3.6641zm61.742-28.441h-45.711c-2.2305 0-4.0469 1.7383-4.0469 3.9297v8.3867c-1.8906-0.49219-3.668-1.2852-5.6719-1.2852-3.5898 0-6.918 3.2109-7.1836 5.1758-1.2852 6.9141 2.5312 5.9297 3.8945 9.5938-3.9688 1.5117-10.059 4.6445-13.461 7.3281-10.434 8.1953-5.6328 19.98 1.8906 20.398-0.49219 5.25-0.30078 10.805 0.26562 16.77 0.1875 1.3984-0.039062 2.0781 0.52734 2.1914 11.91 2.1172 22.648 2.9844 34.672 2.418 3.25-0.15234 6.8828-0.49219 9.3398-2.9102 3.8945-3.8516 2.7227-9.8203 0-14.695 0-0.039063 10.852-5.4023 9.9062-18.359h15.578c2.2695 0 4.082-1.7734 4.082-3.9297v-31.086c0-2.1914-1.8164-3.9297-4.082-3.9297zm-69.266 71.277 0.30078 0.039062zm20.039-53.449c-0.22656 2.457 1.8164 4.9102 1.2109 7.0273-0.52734 1.3984-1.9648 2.2656-3.4414 2.3438-2.1172 0.039063-5.0273 2.2305-6.0117-0.52734 4.8789-0.22656 4.1602 0.1875 4.1953-1.6602 0.074219-2.5703 1.8906-5.7422 4.0469-7.1758zm17.164 3.3984c0.30078 0.039063 0.71875 1.2852 1.2461 0.49219 2.418-3.7031 5.4453-5.6641 4.3867-4.1914-1.7383 2.418-2.6484 2.9102-1.625 4.7969 0.41406 0.71875 0.49219 1.5859 0.30078 2.3789l-2.6484 0.64062c-0.37891-0.37891-3.1016-4.043-1.6641-4.1172zm2.7617 5.8906c-0.11328-0.26562-0.22656-0.52734-0.33984-0.83203 0.75781-0.26562 1.5898-0.49219 2.3828-0.71875 0.37891 0.30078 0.79297 0.60547 1.1719 0.86719-0.94531 0.56641-1.9648 0.94531-3.0625 1.1719-0.039062-0.15234-0.11328-0.30078-0.15234-0.49219zm25.746-6.9883h-11.266c-0.75781 0-0.49219 1.3203-0.49219 2.6836 0 0.26562 0.22656 0.49219 0.49219 0.49219h11.266c0.75781 0 0.49219-1.3594 0.49219-2.6836 0-0.26563-0.1875-0.49219-0.49219-0.49219zm0-13.75h-11.266c-0.75781 0-0.49219 1.3594-0.49219 2.6836 0 0.30078 0.22656 0.49219 0.49219 0.49219h11.266c0.75781 0 0.49219-1.3203 0.49219-2.6836 0-0.26563-0.1875-0.49219-0.49219-0.49219zm-23.102 0h-11.305c-0.75781 0-0.49219 1.3594-0.49219 2.6836 0 0.30078 0.1875 0.49219 0.49219 0.49219h11.266c0.75781 0 0.45312-1.3203 0.49219-2.6836 0-0.26563-0.22656-0.49219-0.45312-0.49219zm0 4.9492h-11.305c-0.75781 0-0.49219 1.3594-0.49219 2.7188 0 0.26562 0.1875 0.45312 0.49219 0.45312h11.266c0.75781 0 0.45312-1.3203 0.49219-2.6836 0-0.26562-0.22656-0.49219-0.45312-0.49219zm23.102 0h-11.266c-0.75781 0-0.49219 1.3594-0.49219 2.7188 0 0.26562 0.22656 0.45312 0.49219 0.45312h11.266c0.75781 0 0.49219-1.3203 0.49219-2.6836 0-0.26562-0.1875-0.49219-0.49219-0.49219zm0 4.5312h-11.266c-0.75781 0-0.49219 1.3203-0.49219 2.6836 0 0.26563 0.22656 0.49219 0.49219 0.49219h11.266c0.75781 0 0.49219-1.3594 0.49219-2.7188 0-0.26562-0.1875-0.45312-0.49219-0.45312z" fill-rule="evenodd"/>
</svg>