<svg width="200" height="200" viewBox="0 0 200 200" xmlns="http://www.w3.org/2000/svg">
    <defs>
      <linearGradient id="grad1" x1="0%" y1="0%" x2="100%" y2="10%">
        <stop offset="0%" style="stop-color:#FFD700;stop-opacity:1" />
        <stop offset="47%" style="stop-color:#ffea00;stop-opacity:1" />
        <stop offset="48%" style="stop-color:#FFFACD;stop-opacity:1" />
        <stop offset="50%" style="stop-color:#FFFFFF;stop-opacity:1" />
        <stop offset="52%" style="stop-color:#FFFACD;stop-opacity:1" />
        <stop offset="53%" style="stop-color:#ffea00;stop-opacity:1" />
        <stop offset="100%" style="stop-color:#FFC700;stop-opacity:1" />
      </linearGradient>
      <linearGradient id="grad2" x1="0%" y1="0%" x2="100%" y2="100%">
        <stop offset="0%" style="stop-color:#FFF700;stop-opacity:0.5" />
        <stop offset="100%" style="stop-color:#FFD700;stop-opacity:0" />
      </linearGradient>
    </defs>
    <g transform="rotate(-3 45 -30) translate(0 25)">
        <rect x="30" y="80" width="140" height="40" fill="url(#grad1)" stroke="url(#grad1)" stroke-width="5" />
        
    </g>
    <g>
        <polygon points="100,10 110,30 130,35 110,40 100,60 90,40 70,35 90,30" fill="#FFD700" opacity="0.8"/>
        <polygon points="50,50 60,70 80,75 60,80 50,100 40,80 20,75 40,70" fill="#FFD700" opacity="0.8"/>
        <polygon points="150,50 160,70 180,75 160,80 150,100 140,80 120,75 140,70" fill="#FFD700" opacity="0.8"/>
    </g>
</svg>